<svg width="1440" height="1110" viewBox="0 0 1440 1110" fill="none" xmlns="http://www.w3.org/2000/svg">
<path d="M0 0C0 0 438.685 30 720 30C1001.31 30 1440 0 1440 0V1110C1440 1110 1001.31 1080 720 1080C438.685 1080 0 1110 0 1110L0 0Z" fill="#FCD89C"/>
<path d="M172.441 884.403C172.441 882.658 173.856 881.242 175.602 881.242C177.348 881.242 178.763 882.658 178.763 884.403C178.763 886.149 177.348 887.564 175.602 887.564C173.856 887.564 172.441 886.149 172.441 884.403Z" fill="#0A428E"/>
<path d="M126.081 884.403C126.081 882.658 127.497 881.242 129.242 881.242C130.988 881.242 132.403 882.658 132.403 884.403C132.403 886.149 130.988 887.564 129.242 887.564C127.497 887.564 126.081 886.149 126.081 884.403Z" fill="#0A428E"/>
<path d="M79.7211 884.403C79.7211 882.658 81.1363 881.242 82.882 881.242C84.6278 881.242 86.043 882.658 86.043 884.403C86.043 886.149 84.6278 887.564 82.882 887.564C81.1363 887.564 79.7211 886.149 79.7211 884.403Z" fill="#0A428E"/>
<path d="M33.3608 884.403C33.3608 882.658 34.776 881.242 36.5217 881.242C38.2674 881.242 39.6826 882.658 39.6826 884.403C39.6826 886.149 38.2674 887.564 36.5217 887.564C34.776 887.564 33.3608 886.149 33.3608 884.403Z" fill="#0A428E"/>
<path d="M172.442 838.043C172.442 836.297 173.857 834.882 175.603 834.882C177.348 834.882 178.764 836.297 178.764 838.043C178.764 839.789 177.348 841.204 175.603 841.204C173.857 841.204 172.442 839.789 172.442 838.043Z" fill="#0A428E"/>
<path d="M126.081 838.043C126.081 836.297 127.497 834.882 129.242 834.882C130.988 834.882 132.403 836.297 132.403 838.043C132.403 839.789 130.988 841.204 129.242 841.204C127.497 841.204 126.081 839.789 126.081 838.043Z" fill="#0A428E"/>
<path d="M79.7211 838.043C79.7211 836.297 81.1363 834.882 82.882 834.882C84.6278 834.882 86.043 836.297 86.043 838.043C86.043 839.789 84.6278 841.204 82.882 841.204C81.1363 841.204 79.7211 839.789 79.7211 838.043Z" fill="#0A428E"/>
<path d="M33.3608 838.043C33.3608 836.297 34.776 834.882 36.5217 834.882C38.2674 834.882 39.6826 836.297 39.6826 838.043C39.6826 839.789 38.2674 841.204 36.5217 841.204C34.776 841.204 33.3608 839.789 33.3608 838.043Z" fill="#0A428E"/>
<path d="M172.442 791.683C172.442 789.937 173.857 788.522 175.603 788.522C177.348 788.522 178.764 789.937 178.764 791.683C178.764 793.428 177.348 794.844 175.603 794.844C173.857 794.844 172.442 793.428 172.442 791.683Z" fill="#0A428E"/>
<path d="M126.081 791.683C126.081 789.937 127.497 788.522 129.242 788.522C130.988 788.522 132.403 789.937 132.403 791.683C132.403 793.428 130.988 794.844 129.242 794.844C127.497 794.844 126.081 793.428 126.081 791.683Z" fill="#0A428E"/>
<path d="M79.7211 791.683C79.7211 789.937 81.1363 788.522 82.882 788.522C84.6278 788.522 86.043 789.937 86.043 791.683C86.043 793.428 84.6278 794.844 82.882 794.844C81.1363 794.844 79.7211 793.428 79.7211 791.683Z" fill="#0A428E"/>
<path d="M33.3608 791.683C33.3608 789.937 34.776 788.522 36.5217 788.522C38.2674 788.522 39.6826 789.937 39.6826 791.683C39.6826 793.428 38.2674 794.844 36.5217 794.844C34.776 794.844 33.3608 793.428 33.3608 791.683Z" fill="#0A428E"/>
<path d="M172.442 745.322C172.442 743.577 173.857 742.162 175.603 742.162C177.348 742.162 178.764 743.577 178.764 745.322C178.764 747.068 177.348 748.483 175.603 748.483C173.857 748.483 172.442 747.068 172.442 745.322Z" fill="#0A428E"/>
<path d="M126.081 745.322C126.081 743.577 127.497 742.162 129.242 742.162C130.988 742.162 132.403 743.577 132.403 745.322C132.403 747.068 130.988 748.483 129.242 748.483C127.497 748.483 126.081 747.068 126.081 745.322Z" fill="#0A428E"/>
<path d="M79.7211 745.322C79.7211 743.577 81.1363 742.162 82.882 742.162C84.6278 742.162 86.043 743.577 86.043 745.322C86.043 747.068 84.6278 748.483 82.882 748.483C81.1363 748.483 79.7211 747.068 79.7211 745.322Z" fill="#0A428E"/>
<path d="M33.3608 745.322C33.3608 743.577 34.776 742.162 36.5217 742.162C38.2674 742.162 39.6826 743.577 39.6826 745.322C39.6826 747.068 38.2674 748.483 36.5217 748.483C34.776 748.483 33.3608 747.068 33.3608 745.322Z" fill="#0A428E"/>
<path d="M172.442 698.962C172.442 697.217 173.857 695.801 175.603 695.801C177.348 695.801 178.764 697.217 178.764 698.962C178.764 700.708 177.348 702.123 175.603 702.123C173.857 702.123 172.442 700.708 172.442 698.962Z" fill="#0A428E"/>
<path d="M126.081 698.962C126.081 697.217 127.497 695.801 129.242 695.801C130.988 695.801 132.403 697.217 132.403 698.962C132.403 700.708 130.988 702.123 129.242 702.123C127.497 702.123 126.081 700.708 126.081 698.962Z" fill="#0A428E"/>
<path d="M79.7211 698.962C79.7211 697.216 81.1363 695.801 82.882 695.801C84.6278 695.801 86.043 697.216 86.043 698.962C86.043 700.708 84.6278 702.123 82.882 702.123C81.1363 702.123 79.7211 700.708 79.7211 698.962Z" fill="#0A428E"/>
<path d="M33.3608 698.962C33.3608 697.217 34.776 695.801 36.5217 695.801C38.2674 695.801 39.6826 697.217 39.6826 698.962C39.6826 700.708 38.2674 702.123 36.5217 702.123C34.776 702.123 33.3608 700.708 33.3608 698.962Z" fill="#0A428E"/>
<path d="M172.442 652.602C172.442 650.856 173.857 649.441 175.603 649.441C177.348 649.441 178.764 650.856 178.764 652.602C178.764 654.348 177.348 655.763 175.603 655.763C173.857 655.763 172.442 654.348 172.442 652.602Z" fill="#0A428E"/>
<path d="M126.081 652.602C126.081 650.856 127.497 649.441 129.242 649.441C130.988 649.441 132.403 650.856 132.403 652.602C132.403 654.348 130.988 655.763 129.242 655.763C127.497 655.763 126.081 654.348 126.081 652.602Z" fill="#0A428E"/>
<path d="M79.7211 652.602C79.7211 650.856 81.1363 649.441 82.882 649.441C84.6278 649.441 86.043 650.856 86.043 652.602C86.043 654.348 84.6278 655.763 82.882 655.763C81.1363 655.763 79.7211 654.348 79.7211 652.602Z" fill="#0A428E"/>
<path d="M33.3608 652.602C33.3608 650.856 34.776 649.441 36.5217 649.441C38.2674 649.441 39.6826 650.856 39.6826 652.602C39.6826 654.348 38.2674 655.763 36.5217 655.763C34.776 655.763 33.3608 654.348 33.3608 652.602Z" fill="#0A428E"/>
<path d="M172.442 606.242C172.442 604.496 173.857 603.081 175.603 603.081C177.348 603.081 178.764 604.496 178.764 606.242C178.764 607.987 177.348 609.403 175.603 609.403C173.857 609.403 172.442 607.987 172.442 606.242Z" fill="#0A428E"/>
<path d="M126.081 606.242C126.081 604.496 127.497 603.081 129.242 603.081C130.988 603.081 132.403 604.496 132.403 606.242C132.403 607.987 130.988 609.403 129.242 609.403C127.497 609.403 126.081 607.987 126.081 606.242Z" fill="#0A428E"/>
<path d="M79.7211 606.242C79.7211 604.496 81.1363 603.081 82.882 603.081C84.6278 603.081 86.043 604.496 86.043 606.242C86.043 607.987 84.6278 609.403 82.882 609.403C81.1363 609.403 79.7211 607.987 79.7211 606.242Z" fill="#0A428E"/>
<path d="M33.3608 606.242C33.3608 604.496 34.776 603.081 36.5217 603.081C38.2674 603.081 39.6826 604.496 39.6826 606.242C39.6826 607.987 38.2674 609.403 36.5217 609.403C34.776 609.403 33.3608 607.987 33.3608 606.242Z" fill="#0A428E"/>
<path d="M172.442 559.881C172.442 558.136 173.857 556.721 175.603 556.721C177.348 556.721 178.764 558.136 178.764 559.881C178.764 561.627 177.348 563.042 175.603 563.042C173.857 563.042 172.442 561.627 172.442 559.881Z" fill="#0A428E"/>
<path d="M126.081 559.881C126.081 558.136 127.497 556.721 129.242 556.721C130.988 556.721 132.403 558.136 132.403 559.881C132.403 561.627 130.988 563.042 129.242 563.042C127.497 563.042 126.081 561.627 126.081 559.881Z" fill="#0A428E"/>
<path d="M79.7211 559.881C79.7211 558.136 81.1363 556.721 82.882 556.721C84.6278 556.721 86.043 558.136 86.043 559.881C86.043 561.627 84.6278 563.042 82.882 563.042C81.1363 563.042 79.7211 561.627 79.7211 559.881Z" fill="#0A428E"/>
<path d="M33.3608 559.881C33.3608 558.136 34.776 556.721 36.5217 556.721C38.2674 556.721 39.6826 558.136 39.6826 559.881C39.6826 561.627 38.2674 563.042 36.5217 563.042C34.776 563.042 33.3608 561.627 33.3608 559.881Z" fill="#0A428E"/>
<path d="M172.442 513.521C172.442 511.775 173.857 510.36 175.603 510.36C177.348 510.36 178.764 511.775 178.764 513.521C178.764 515.267 177.348 516.682 175.603 516.682C173.857 516.682 172.442 515.267 172.442 513.521Z" fill="#0A428E"/>
<path d="M126.081 513.521C126.081 511.775 127.497 510.36 129.242 510.36C130.988 510.36 132.403 511.775 132.403 513.521C132.403 515.267 130.988 516.682 129.242 516.682C127.497 516.682 126.081 515.267 126.081 513.521Z" fill="#0A428E"/>
<path d="M79.7211 513.521C79.7211 511.775 81.1363 510.36 82.882 510.36C84.6278 510.36 86.043 511.775 86.043 513.521C86.043 515.267 84.6278 516.682 82.882 516.682C81.1363 516.682 79.7211 515.267 79.7211 513.521Z" fill="#0A428E"/>
<path d="M33.3608 513.521C33.3608 511.775 34.776 510.36 36.5217 510.36C38.2674 510.36 39.6826 511.775 39.6826 513.521C39.6826 515.267 38.2674 516.682 36.5217 516.682C34.776 516.682 33.3608 515.267 33.3608 513.521Z" fill="#0A428E"/>
<path d="M172.442 467.161C172.442 465.415 173.857 464 175.603 464C177.348 464 178.764 465.415 178.764 467.161C178.764 468.907 177.348 470.322 175.603 470.322C173.857 470.322 172.442 468.907 172.442 467.161Z" fill="#0A428E"/>
<path d="M126.081 467.161C126.081 465.415 127.497 464 129.242 464C130.988 464 132.403 465.415 132.403 467.161C132.403 468.907 130.988 470.322 129.242 470.322C127.497 470.322 126.081 468.907 126.081 467.161Z" fill="#0A428E"/>
<path d="M79.7211 467.161C79.7211 465.415 81.1363 464 82.882 464C84.6278 464 86.043 465.415 86.043 467.161C86.043 468.907 84.6278 470.322 82.882 470.322C81.1363 470.322 79.7211 468.907 79.7211 467.161Z" fill="#0A428E"/>
<path d="M33.3608 467.161C33.3608 465.415 34.776 464 36.5217 464C38.2674 464 39.6826 465.415 39.6826 467.161C39.6826 468.907 38.2674 470.322 36.5217 470.322C34.776 470.322 33.3608 468.907 33.3608 467.161Z" fill="#0A428E"/>
<path fill-rule="evenodd" clip-rule="evenodd" d="M317.5 392C389.021 392 447 334.021 447 262.5C447 190.979 389.021 133 317.5 133C245.979 133 188 190.979 188 262.5C188 334.021 245.979 392 317.5 392ZM317.5 397C391.782 397 452 336.782 452 262.5C452 188.218 391.782 128 317.5 128C243.218 128 183 188.218 183 262.5C183 336.782 243.218 397 317.5 397Z" fill="#FFBA49"/>
<path fill-rule="evenodd" clip-rule="evenodd" d="M1209 843C1278.59 843 1335 786.588 1335 717C1335 647.412 1278.59 591 1209 591C1139.41 591 1083 647.412 1083 717C1083 786.588 1139.41 843 1209 843ZM1209 848C1281.35 848 1340 789.349 1340 717C1340 644.651 1281.35 586 1209 586C1136.65 586 1078 644.651 1078 717C1078 789.349 1136.65 848 1209 848Z" fill="#FFBA49"/>
<path fill-rule="evenodd" clip-rule="evenodd" d="M129.5 187C144.688 187 157 174.688 157 159.5C157 144.312 144.688 132 129.5 132C114.312 132 102 144.312 102 159.5C102 174.688 114.312 187 129.5 187ZM129.5 192C147.449 192 162 177.449 162 159.5C162 141.551 147.449 127 129.5 127C111.551 127 97 141.551 97 159.5C97 177.449 111.551 192 129.5 192Z" fill="#FFBA49"/>
<path fill-rule="evenodd" clip-rule="evenodd" d="M1035.5 624C1050.69 624 1063 611.688 1063 596.5C1063 581.312 1050.69 569 1035.5 569C1020.31 569 1008 581.312 1008 596.5C1008 611.688 1020.31 624 1035.5 624ZM1035.5 629C1053.45 629 1068 614.449 1068 596.5C1068 578.551 1053.45 564 1035.5 564C1017.55 564 1003 578.551 1003 596.5C1003 614.449 1017.55 629 1035.5 629Z" fill="#FFBA49"/>
</svg>
