<svg width="605" height="688" viewBox="0 0 605 688" fill="none" xmlns="http://www.w3.org/2000/svg">
<path d="M77 268.096C77 164.766 163.409 81 270 81C376.591 81 463 164.766 463 268.096V674H77V268.096Z" fill="#FCD89C"/>
<path fill-rule="evenodd" clip-rule="evenodd" d="M481.242 687.211V277.119C481.242 174.831 393.673 91.7886 285.5 91.7886C177.327 91.7886 89.7585 174.831 89.7585 277.119V687.211H481.242ZM285.5 91C176.976 91 89 174.328 89 277.119V688H482V277.119C482 174.328 394.024 91 285.5 91Z" fill="#F8A722"/>
<path fill-rule="evenodd" clip-rule="evenodd" d="M4.06771 54.924C11.7135 32.773 32.0401 0 69.8358 0C79.5552 0 86.9531 2.78526 92.3537 7.35447C110.425 1.44371 131.266 8.67918 150.454 20.6154C172.691 34.448 193.043 54.7914 204.997 69.3147L203.649 70.4544C191.777 56.0297 171.563 35.8342 149.536 22.1318C130.792 10.472 110.974 3.65511 93.8789 8.74304C95.3431 10.1764 96.6396 11.7536 97.7766 13.4496C103.156 21.4736 104.891 32.0476 104.097 42.3643C103.304 52.6852 99.9712 62.8687 95.0727 70.1754C90.195 77.451 83.5874 82.0973 76.2583 80.7137C66.1881 78.8126 55.8795 68.7099 54.2576 55.4073C52.623 42 59.8087 25.6298 84.1241 11.1075C86.1695 9.88581 88.2645 8.8711 90.4013 8.04885C85.4061 4.15574 78.6694 1.77925 69.8358 1.77925C33.2617 1.77925 13.3547 33.4744 5.75705 55.4181L9.73829 56.5824L2.4356 63.7059L0 53.7344L4.06771 54.924ZM91.9646 9.36703C89.5879 10.2104 87.268 11.295 85.0154 12.6403C61.0534 26.9517 54.4816 42.7362 55.9999 55.1891C57.5309 67.7468 67.2856 77.2099 76.5798 78.9645C82.8874 80.1553 88.8978 76.2202 93.6207 69.1754C98.3227 62.1618 101.574 52.2862 102.347 42.2261C103.121 32.1618 101.408 22.033 96.3245 14.4495C95.0823 12.5965 93.6346 10.8889 91.9646 9.36703Z" fill="#F8A722"/>
<path d="M546 641.5C546 657.792 559.208 671 575.5 671V671C591.792 671 605 657.792 605 641.5V641.5C605 625.208 591.792 612 575.5 612H546V641.5Z" fill="#F8A722" fill-opacity="0.28"/>
</svg>
