<svg width="43" height="60" viewBox="0 0 43 60" fill="none" xmlns="http://www.w3.org/2000/svg">
<path d="M32.4098 39.2601C38.3098 35.6201 40.9998 28.0401 38.7498 21.4901C36.0998 13.7901 28.1898 9.53011 20.2798 11.5501C13.1998 13.3601 8.22983 20.4001 8.90983 27.6501C9.64983 35.6101 16.2798 41.6401 24.2798 41.6301C25.7698 41.6301 27.2698 41.6101 28.7598 41.6101C29.2598 41.6101 29.6398 41.7701 29.6598 42.3501C29.6798 42.9601 29.3198 43.1901 28.7598 43.2001C28.5398 43.2001 28.3198 43.2001 28.0898 43.2001C25.2898 43.2001 22.4998 43.1901 19.6998 43.2001C18.2198 43.2001 17.0498 43.8201 16.3198 45.1201C14.8998 47.6601 16.7298 50.5301 19.7998 50.5701C22.6898 50.6101 25.5898 50.5801 28.4798 50.5701C29.0298 50.5701 29.6098 50.6201 29.6198 51.2701C29.6298 51.9601 29.0498 52.0901 28.4598 52.0901C26.8698 52.0901 25.2798 52.0801 23.6898 52.1001C23.1898 52.1001 22.6798 52.0701 22.1798 52.2301C20.3498 52.8301 19.3698 54.3101 19.5498 56.2401C19.6998 57.8801 21.0498 59.2801 22.8198 59.4101C24.5898 59.5401 26.3798 59.5001 28.1498 59.4801C29.2098 59.4701 29.8698 58.8201 29.8498 57.9501C29.8298 57.0701 29.1798 56.5401 28.0698 56.5401C26.5798 56.5301 25.0798 56.5301 23.5898 56.5401C23.0498 56.5401 22.4898 56.4801 22.4698 55.8101C22.4398 55.1001 22.9698 54.9701 23.5798 54.9801C25.3898 55.0001 27.1998 55.0201 29.0198 54.9801C31.4798 54.9201 33.1398 52.4801 32.3498 50.1501C31.7898 48.5001 30.4698 47.6301 28.4198 47.6101C25.6198 47.5901 22.8298 47.6101 20.0298 47.6001C19.4798 47.6001 18.7398 47.7301 18.7598 46.8701C18.7798 46.0201 19.5298 46.1901 20.0698 46.1801C21.4998 46.1701 22.9298 46.1801 24.3598 46.1801C24.3598 46.1801 24.3598 46.1801 24.3598 46.1701C25.8898 46.1701 27.4098 46.2101 28.9398 46.1601C31.8698 46.0601 33.6198 42.9201 32.0598 40.4601C31.6098 39.7401 31.8698 39.5901 32.4098 39.2601ZM30.8098 36.6801C27.2798 38.9901 23.5098 39.2401 19.6398 37.7601C13.2498 35.3101 10.1498 27.8201 12.8598 21.5501C12.9098 21.4401 12.9998 21.3401 13.0598 21.2401C14.6398 17.6101 17.4298 15.3401 21.2098 14.4101C29.4998 12.3701 37.1198 18.7801 36.4998 27.3201C36.2098 31.3301 34.3298 34.5501 30.8098 36.6801Z" fill="#0A4290"/>
<path d="M27.1695 9.96C26.7695 9.05 26.3995 8.25 26.0595 7.43C25.9095 7.06 25.6695 6.98 25.3095 7C24.1695 7.07 23.0395 7.15 21.9095 7.39C20.3195 7.73 18.8295 8.34 17.3195 8.92C19.4295 7.25 21.8195 6.22 24.4595 5.8C25.4595 5.64 26.2795 5.39 26.8695 4.45C27.5795 3.33 28.4695 2.32 29.2595 1.25C29.4095 1.05 29.7095 0.88 29.5595 0.5C24.3095 0.68 19.0395 0.86 13.7695 1.01C13.1795 1.03 12.7695 1.2 12.3695 1.62C8.80945 5.25 5.22945 8.87 1.65945 12.49C1.47945 12.68 1.29945 12.89 0.939453 13.27C2.07945 13.09 2.92945 13.44 3.80945 13.42C4.04945 13.42 4.41945 13.37 4.38945 13.73C4.28945 14.73 4.83945 15.82 3.95945 16.71C3.68945 16.98 3.58945 17.42 3.77945 17.68C4.18945 18.26 4.00945 18.81 3.94945 19.4C3.85945 20.23 3.82945 21.07 3.74945 22.26C4.52945 21.08 5.22945 21.21 6.04945 22.13C6.00945 20.38 5.49945 18.88 6.03945 17.39C6.08945 17.24 6.00945 17.01 5.92945 16.85C5.35945 15.71 5.19945 14.17 5.57945 12.71C5.80945 13.94 6.74945 13.68 7.46945 13.74C8.02945 13.79 8.30945 13.97 8.50945 14.49C8.92945 15.55 9.42945 16.59 9.91945 17.71C14.1295 11.56 19.8695 9.07 27.1695 9.96Z" fill="#0A4290"/>
<path d="M38.0486 36.5101C37.6986 36.9101 37.2786 37.2501 36.8886 37.6101C36.4486 38.3301 35.6786 38.6401 35.1086 39.0701C35.5486 38.5601 36.0386 38.0001 36.5386 37.4301C39.3986 34.2101 40.8486 30.4501 40.7786 26.1501C40.7386 23.6101 40.2086 21.3001 39.1986 19.2101C38.1986 17.1201 36.7186 15.2501 34.8086 13.6001C34.9486 13.5201 35.0886 13.4401 35.2386 13.3701C38.9786 15.8801 41.1586 19.4101 41.8486 23.8201C42.5986 28.6301 41.2286 32.8601 38.0486 36.5101Z" fill="#F3A92D"/>
<path d="M35.2504 13.3699C35.1104 13.4499 34.9604 13.5299 34.8204 13.5999C34.2604 13.2099 33.7104 12.8199 33.1504 12.4199C34.0204 12.4299 34.6404 12.8899 35.2504 13.3699Z" fill="#E3BC73"/>
<path d="M36.4986 27.3199C37.1186 18.7799 29.4986 12.3799 21.2086 14.4099C17.4286 15.3399 14.6386 17.6099 13.0586 21.2399C14.1486 24.5999 15.9986 27.5199 18.4086 30.0599C19.8686 31.5999 21.6586 32.7399 23.3786 33.9799C25.7086 34.3199 27.6886 33.5799 29.4286 32.0499C29.6386 31.8599 29.8386 31.6499 30.0486 31.4599C30.5186 31.0299 31.0286 30.9799 31.4886 31.4299C31.9486 31.8899 31.8586 32.4099 31.4386 32.8699C29.9886 34.4799 28.1786 35.4699 26.0586 35.8999C23.7686 36.3599 21.6086 35.9099 19.5186 34.9499C20.4186 36.1699 21.7086 36.8199 23.1286 37.0099C24.6486 37.2099 26.2386 37.1799 27.5586 36.1199C27.8086 35.9199 28.1186 35.8599 28.4586 35.9699C29.2386 36.2199 30.0286 36.4399 30.8086 36.6699C34.3286 34.5499 36.2086 31.3299 36.4986 27.3199Z" fill="#F8A724"/>
<path d="M27.5497 36.13C26.2197 37.19 24.6397 37.22 23.1197 37.02C21.6997 36.83 20.4097 36.17 19.5097 34.96C18.7497 34.35 17.8997 33.85 17.2297 33.13C16.7297 32.59 16.3597 32.03 16.9997 31.41C17.5997 30.83 18.1397 31.18 18.6397 31.68C19.9497 32.99 21.4597 33.92 23.3797 33.99C21.6697 32.76 19.8697 31.61 18.4097 30.07C15.9997 27.52 14.1497 24.61 13.0597 21.25C12.9897 21.35 12.8997 21.45 12.8597 21.56C10.1497 27.83 13.2497 35.32 19.6397 37.77C23.5097 39.25 27.2697 39 30.8097 36.69C30.0297 36.46 29.2397 36.24 28.4597 35.99C28.1197 35.87 27.7997 35.93 27.5497 36.13Z" fill="#DD8C10"/>
<path d="M16.9986 31.41C16.3586 32.03 16.7286 32.59 17.2286 33.13C17.8986 33.86 18.7486 34.36 19.5086 34.96C21.5986 35.91 23.7586 36.37 26.0486 35.91C28.1686 35.48 29.9686 34.48 31.4286 32.88C31.8486 32.42 31.9386 31.9 31.4786 31.44C31.0286 30.99 30.5086 31.04 30.0386 31.47C29.8286 31.66 29.6386 31.87 29.4186 32.06C27.6886 33.59 25.6986 34.33 23.3686 33.99C21.4486 33.92 19.9486 32.99 18.6286 31.68C18.1386 31.18 17.5986 30.82 16.9986 31.41Z" fill="#0D418D"/>
</svg>
