<svg width="256" height="66" viewBox="0 0 256 66" fill="none" xmlns="http://www.w3.org/2000/svg">
<path d="M32.4098 42.2601C38.3098 38.6201 40.9998 31.0401 38.7498 24.4901C36.0998 16.7901 28.1898 12.5301 20.2798 14.5501C13.1998 16.3601 8.22983 23.4001 8.90983 30.6501C9.64983 38.6101 16.2798 44.6401 24.2798 44.6301C25.7698 44.6301 27.2698 44.6101 28.7598 44.6101C29.2598 44.6101 29.6398 44.7701 29.6598 45.3501C29.6798 45.9601 29.3198 46.1901 28.7598 46.2001C28.5398 46.2001 28.3198 46.2001 28.0898 46.2001C25.2898 46.2001 22.4998 46.1901 19.6998 46.2001C18.2198 46.2001 17.0498 46.8201 16.3198 48.1201C14.8998 50.6601 16.7298 53.5301 19.7998 53.5701C22.6898 53.6101 25.5898 53.5801 28.4798 53.5701C29.0298 53.5701 29.6098 53.6201 29.6198 54.2701C29.6298 54.9601 29.0498 55.0901 28.4598 55.0901C26.8698 55.0901 25.2798 55.0801 23.6898 55.1001C23.1898 55.1001 22.6798 55.0701 22.1798 55.2301C20.3498 55.8301 19.3698 57.3101 19.5498 59.2401C19.6998 60.8801 21.0498 62.2801 22.8198 62.4101C24.5898 62.5401 26.3798 62.5001 28.1498 62.4801C29.2098 62.4701 29.8698 61.8201 29.8498 60.9501C29.8298 60.0701 29.1798 59.5401 28.0698 59.5401C26.5798 59.5301 25.0798 59.5301 23.5898 59.5401C23.0498 59.5401 22.4898 59.4801 22.4698 58.8101C22.4398 58.1001 22.9698 57.9701 23.5798 57.9801C25.3898 58.0001 27.1998 58.0201 29.0198 57.9801C31.4798 57.9201 33.1398 55.4801 32.3498 53.1501C31.7898 51.5001 30.4698 50.6301 28.4198 50.6101C25.6198 50.5901 22.8298 50.6101 20.0298 50.6001C19.4798 50.6001 18.7398 50.7301 18.7598 49.8701C18.7798 49.0201 19.5298 49.1901 20.0698 49.1801C21.4998 49.1701 22.9298 49.1801 24.3598 49.1801C24.3598 49.1801 24.3598 49.1801 24.3598 49.1701C25.8898 49.1701 27.4098 49.2101 28.9398 49.1601C31.8698 49.0601 33.6198 45.9201 32.0598 43.4601C31.6098 42.7401 31.8698 42.5901 32.4098 42.2601ZM30.8098 39.6801C27.2798 41.9901 23.5098 42.2401 19.6398 40.7601C13.2498 38.3101 10.1498 30.8201 12.8598 24.5501C12.9098 24.4401 12.9998 24.3401 13.0598 24.2401C14.6398 20.6101 17.4298 18.3401 21.2098 17.4101C29.4998 15.3701 37.1198 21.7801 36.4998 30.3201C36.2098 34.3301 34.3298 37.5501 30.8098 39.6801Z" fill="#0A4290"/>
<path d="M27.1695 12.96C26.7695 12.05 26.3995 11.25 26.0595 10.43C25.9095 10.06 25.6695 9.98 25.3095 10C24.1695 10.07 23.0395 10.15 21.9095 10.39C20.3195 10.73 18.8295 11.34 17.3195 11.92C19.4295 10.25 21.8195 9.22 24.4595 8.8C25.4595 8.64 26.2795 8.39 26.8695 7.45C27.5795 6.33 28.4695 5.32 29.2595 4.25C29.4095 4.05 29.7095 3.88 29.5595 3.5C24.3095 3.68 19.0395 3.86 13.7695 4.01C13.1795 4.03 12.7695 4.2 12.3695 4.62C8.80945 8.25 5.22945 11.87 1.65945 15.49C1.47945 15.68 1.29945 15.89 0.939453 16.27C2.07945 16.09 2.92945 16.44 3.80945 16.42C4.04945 16.42 4.41945 16.37 4.38945 16.73C4.28945 17.73 4.83945 18.82 3.95945 19.71C3.68945 19.98 3.58945 20.42 3.77945 20.68C4.18945 21.26 4.00945 21.81 3.94945 22.4C3.85945 23.23 3.82945 24.07 3.74945 25.26C4.52945 24.08 5.22945 24.21 6.04945 25.13C6.00945 23.38 5.49945 21.88 6.03945 20.39C6.08945 20.24 6.00945 20.01 5.92945 19.85C5.35945 18.71 5.19945 17.17 5.57945 15.71C5.80945 16.94 6.74945 16.68 7.46945 16.74C8.02945 16.79 8.30945 16.97 8.50945 17.49C8.92945 18.55 9.42945 19.59 9.91945 20.71C14.1295 14.56 19.8695 12.07 27.1695 12.96Z" fill="#0A4290"/>
<path d="M38.0486 39.5101C37.6986 39.9101 37.2786 40.2501 36.8886 40.6101C36.4486 41.3301 35.6786 41.6401 35.1086 42.0701C35.5486 41.5601 36.0386 41.0001 36.5386 40.4301C39.3986 37.2101 40.8486 33.4501 40.7786 29.1501C40.7386 26.6101 40.2086 24.3001 39.1986 22.2101C38.1986 20.1201 36.7186 18.2501 34.8086 16.6001C34.9486 16.5201 35.0886 16.4401 35.2386 16.3701C38.9786 18.8801 41.1586 22.4101 41.8486 26.8201C42.5986 31.6301 41.2286 35.8601 38.0486 39.5101Z" fill="#F3A92D"/>
<path d="M35.2504 16.3699C35.1104 16.4499 34.9604 16.5299 34.8204 16.5999C34.2604 16.2099 33.7104 15.8199 33.1504 15.4199C34.0204 15.4299 34.6404 15.8899 35.2504 16.3699Z" fill="#E3BC73"/>
<path d="M36.4986 30.3199C37.1186 21.7799 29.4986 15.3799 21.2086 17.4099C17.4286 18.3399 14.6386 20.6099 13.0586 24.2399C14.1486 27.5999 15.9986 30.5199 18.4086 33.0599C19.8686 34.5999 21.6586 35.7399 23.3786 36.9799C25.7086 37.3199 27.6886 36.5799 29.4286 35.0499C29.6386 34.8599 29.8386 34.6499 30.0486 34.4599C30.5186 34.0299 31.0286 33.9799 31.4886 34.4299C31.9486 34.8899 31.8586 35.4099 31.4386 35.8699C29.9886 37.4799 28.1786 38.4699 26.0586 38.8999C23.7686 39.3599 21.6086 38.9099 19.5186 37.9499C20.4186 39.1699 21.7086 39.8199 23.1286 40.0099C24.6486 40.2099 26.2386 40.1799 27.5586 39.1199C27.8086 38.9199 28.1186 38.8599 28.4586 38.9699C29.2386 39.2199 30.0286 39.4399 30.8086 39.6699C34.3286 37.5499 36.2086 34.3299 36.4986 30.3199Z" fill="#F8A724"/>
<path d="M27.5497 39.13C26.2197 40.19 24.6397 40.22 23.1197 40.02C21.6997 39.83 20.4097 39.17 19.5097 37.96C18.7497 37.35 17.8997 36.85 17.2297 36.13C16.7297 35.59 16.3597 35.03 16.9997 34.41C17.5997 33.83 18.1397 34.18 18.6397 34.68C19.9497 35.99 21.4597 36.92 23.3797 36.99C21.6697 35.76 19.8697 34.61 18.4097 33.07C15.9997 30.52 14.1497 27.61 13.0597 24.25C12.9897 24.35 12.8997 24.45 12.8597 24.56C10.1497 30.83 13.2497 38.32 19.6397 40.77C23.5097 42.25 27.2697 42 30.8097 39.69C30.0297 39.46 29.2397 39.24 28.4597 38.99C28.1197 38.87 27.7997 38.93 27.5497 39.13Z" fill="#DD8C10"/>
<path d="M16.9986 34.41C16.3586 35.03 16.7286 35.59 17.2286 36.13C17.8986 36.86 18.7486 37.36 19.5086 37.96C21.5986 38.91 23.7586 39.37 26.0486 38.91C28.1686 38.48 29.9686 37.48 31.4286 35.88C31.8486 35.42 31.9386 34.9 31.4786 34.44C31.0286 33.99 30.5086 34.04 30.0386 34.47C29.8286 34.66 29.6386 34.87 29.4186 35.06C27.6886 36.59 25.6986 37.33 23.3686 36.99C21.4486 36.92 19.9486 35.99 18.6286 34.68C18.1386 34.18 17.5986 33.82 16.9986 34.41Z" fill="#0D418D"/>
<path d="M67.0066 6.112V12.14H58.8226V37H51.2986V12.14H43.1146V6.112H67.0066ZM78.3067 12.14V18.388H88.3827V24.196H78.3067V30.972H89.7027V37H70.7827V6.112H89.7027V12.14H78.3067ZM113.815 31.544H102.287L100.439 37H92.5634L103.739 6.112H112.451L123.627 37H115.663L113.815 31.544ZM111.879 25.736L108.051 14.428L104.267 25.736H111.879ZM125.753 21.512C125.753 18.4613 126.413 15.748 127.733 13.372C129.053 10.9667 130.886 9.104 133.233 7.784C135.609 6.43467 138.293 5.76 141.285 5.76C144.951 5.76 148.09 6.728 150.701 8.664C153.311 10.6 155.057 13.24 155.937 16.584H147.665C147.049 15.2933 146.169 14.3107 145.025 13.636C143.91 12.9613 142.634 12.624 141.197 12.624C138.879 12.624 137.002 13.4307 135.565 15.044C134.127 16.6573 133.409 18.8133 133.409 21.512C133.409 24.2107 134.127 26.3667 135.565 27.98C137.002 29.5933 138.879 30.4 141.197 30.4C142.634 30.4 143.91 30.0627 145.025 29.388C146.169 28.7133 147.049 27.7307 147.665 26.44H155.937C155.057 29.784 153.311 32.424 150.701 34.36C148.09 36.2667 144.951 37.22 141.285 37.22C138.293 37.22 135.609 36.56 133.233 35.24C130.886 33.8907 129.053 32.028 127.733 29.652C126.413 27.276 125.753 24.5627 125.753 21.512ZM187.296 6.112V37H179.772V24.284H168.068V37H160.544V6.112H168.068V18.212H179.772V6.112H187.296Z" fill="#01428B"/>
<path d="M227.708 6.112V37H220.184V18.476L213.276 37H207.204L200.252 18.432V37H192.728V6.112H201.616L210.284 27.496L218.864 6.112H227.708ZM240.643 12.14V18.388H250.719V24.196H240.643V30.972H252.039V37H233.119V6.112H252.039V12.14H240.643Z" fill="#F8A724"/>
<path d="M48.6116 52.055V55.03H52.6066V56.917H48.6116V60.062H53.1166V62H46.2316V50.117H53.1166V52.055H48.6116ZM60.6274 50.134C61.8741 50.134 62.9678 50.3777 63.9084 50.865C64.8604 51.3523 65.5914 52.0493 66.1014 52.956C66.6228 53.8513 66.8834 54.894 66.8834 56.084C66.8834 57.274 66.6228 58.3167 66.1014 59.212C65.5914 60.096 64.8604 60.7817 63.9084 61.269C62.9678 61.7563 61.8741 62 60.6274 62H56.4794V50.134H60.6274ZM60.5424 59.977C61.7891 59.977 62.7524 59.637 63.4324 58.957C64.1124 58.277 64.4524 57.3193 64.4524 56.084C64.4524 54.8487 64.1124 53.8853 63.4324 53.194C62.7524 52.4913 61.7891 52.14 60.5424 52.14H58.8594V59.977H60.5424ZM72.211 50.134V57.478C72.211 58.2827 72.4207 58.9003 72.84 59.331C73.2593 59.7503 73.8487 59.96 74.608 59.96C75.3787 59.96 75.9737 59.7503 76.393 59.331C76.8123 58.9003 77.022 58.2827 77.022 57.478V50.134H79.419V57.461C79.419 58.4697 79.198 59.3253 78.756 60.028C78.3253 60.7193 77.7417 61.2407 77.005 61.592C76.2797 61.9433 75.4693 62.119 74.574 62.119C73.69 62.119 72.8853 61.9433 72.16 61.592C71.446 61.2407 70.8793 60.7193 70.46 60.028C70.0407 59.3253 69.831 58.4697 69.831 57.461V50.134H72.211ZM82.3405 56.05C82.3405 54.8827 82.6012 53.84 83.1225 52.922C83.6552 51.9927 84.3748 51.273 85.2815 50.763C86.1995 50.2417 87.2252 49.981 88.3585 49.981C89.6845 49.981 90.8462 50.321 91.8435 51.001C92.8408 51.681 93.5378 52.6217 93.9345 53.823H91.1975C90.9255 53.2563 90.5402 52.8313 90.0415 52.548C89.5542 52.2647 88.9875 52.123 88.3415 52.123C87.6502 52.123 87.0325 52.2873 86.4885 52.616C85.9558 52.9333 85.5365 53.3867 85.2305 53.976C84.9358 54.5653 84.7885 55.2567 84.7885 56.05C84.7885 56.832 84.9358 57.5233 85.2305 58.124C85.5365 58.7133 85.9558 59.1723 86.4885 59.501C87.0325 59.8183 87.6502 59.977 88.3415 59.977C88.9875 59.977 89.5542 59.8353 90.0415 59.552C90.5402 59.2573 90.9255 58.8267 91.1975 58.26H93.9345C93.5378 59.4727 92.8408 60.419 91.8435 61.099C90.8575 61.7677 89.6958 62.102 88.3585 62.102C87.2252 62.102 86.1995 61.847 85.2815 61.337C84.3748 60.8157 83.6552 60.096 83.1225 59.178C82.6012 58.26 82.3405 57.2173 82.3405 56.05ZM104.443 59.739H99.7173L98.9353 62H96.4363L100.703 50.117H103.474L107.741 62H105.225L104.443 59.739ZM103.797 57.835L102.08 52.871L100.363 57.835H103.797ZM118.611 50.134V52.055H115.449V62H113.069V52.055H109.907V50.134H118.611ZM123.928 50.134V62H121.548V50.134H123.928ZM132.987 62.119C131.877 62.119 130.857 61.8583 129.927 61.337C128.998 60.8157 128.261 60.096 127.717 59.178C127.173 58.2487 126.901 57.2003 126.901 56.033C126.901 54.877 127.173 53.84 127.717 52.922C128.261 51.9927 128.998 51.2673 129.927 50.746C130.857 50.2247 131.877 49.964 132.987 49.964C134.109 49.964 135.129 50.2247 136.047 50.746C136.977 51.2673 137.708 51.9927 138.24 52.922C138.784 53.84 139.056 54.877 139.056 56.033C139.056 57.2003 138.784 58.2487 138.24 59.178C137.708 60.096 136.977 60.8157 136.047 61.337C135.118 61.8583 134.098 62.119 132.987 62.119ZM132.987 59.994C133.701 59.994 134.33 59.8353 134.874 59.518C135.418 59.1893 135.843 58.7247 136.149 58.124C136.455 57.5233 136.608 56.8263 136.608 56.033C136.608 55.2397 136.455 54.5483 136.149 53.959C135.843 53.3583 135.418 52.8993 134.874 52.582C134.33 52.2647 133.701 52.106 132.987 52.106C132.273 52.106 131.639 52.2647 131.083 52.582C130.539 52.8993 130.114 53.3583 129.808 53.959C129.502 54.5483 129.349 55.2397 129.349 56.033C129.349 56.8263 129.502 57.5233 129.808 58.124C130.114 58.7247 130.539 59.1893 131.083 59.518C131.639 59.8353 132.273 59.994 132.987 59.994ZM152.176 62H149.796L144.407 53.857V62H142.027V50.117H144.407L149.796 58.277V50.117H152.176V62ZM169.632 53.806C169.632 54.4407 169.479 55.0357 169.173 55.591C168.878 56.1463 168.408 56.594 167.762 56.934C167.127 57.274 166.322 57.444 165.348 57.444H163.359V62H160.979V50.134H165.348C166.266 50.134 167.048 50.2927 167.694 50.61C168.34 50.9273 168.821 51.3637 169.139 51.919C169.467 52.4743 169.632 53.1033 169.632 53.806ZM165.246 55.523C165.903 55.523 166.39 55.3757 166.708 55.081C167.025 54.775 167.184 54.35 167.184 53.806C167.184 52.65 166.538 52.072 165.246 52.072H163.359V55.523H165.246ZM178.641 62L176.023 57.376H174.901V62H172.521V50.134H176.975C177.893 50.134 178.675 50.2983 179.321 50.627C179.967 50.9443 180.449 51.3807 180.766 51.936C181.095 52.48 181.259 53.092 181.259 53.772C181.259 54.554 181.033 55.2623 180.579 55.897C180.126 56.5203 179.452 56.951 178.556 57.189L181.395 62H178.641ZM174.901 55.591H176.89C177.536 55.591 178.018 55.438 178.335 55.132C178.653 54.8147 178.811 54.3783 178.811 53.823C178.811 53.279 178.653 52.8597 178.335 52.565C178.018 52.259 177.536 52.106 176.89 52.106H174.901V55.591ZM190.12 62.119C189.009 62.119 187.989 61.8583 187.06 61.337C186.131 60.8157 185.394 60.096 184.85 59.178C184.306 58.2487 184.034 57.2003 184.034 56.033C184.034 54.877 184.306 53.84 184.85 52.922C185.394 51.9927 186.131 51.2673 187.06 50.746C187.989 50.2247 189.009 49.964 190.12 49.964C191.242 49.964 192.262 50.2247 193.18 50.746C194.109 51.2673 194.84 51.9927 195.373 52.922C195.917 53.84 196.189 54.877 196.189 56.033C196.189 57.2003 195.917 58.2487 195.373 59.178C194.84 60.096 194.109 60.8157 193.18 61.337C192.251 61.8583 191.231 62.119 190.12 62.119ZM190.12 59.994C190.834 59.994 191.463 59.8353 192.007 59.518C192.551 59.1893 192.976 58.7247 193.282 58.124C193.588 57.5233 193.741 56.8263 193.741 56.033C193.741 55.2397 193.588 54.5483 193.282 53.959C192.976 53.3583 192.551 52.8993 192.007 52.582C191.463 52.2647 190.834 52.106 190.12 52.106C189.406 52.106 188.771 52.2647 188.216 52.582C187.672 52.8993 187.247 53.3583 186.941 53.959C186.635 54.5483 186.482 55.2397 186.482 56.033C186.482 56.8263 186.635 57.5233 186.941 58.124C187.247 58.7247 187.672 59.1893 188.216 59.518C188.771 59.8353 189.406 59.994 190.12 59.994ZM209.819 50.134L205.467 62H202.577L198.225 50.134H200.775L204.039 59.569L207.286 50.134H209.819ZM214.826 50.134V62H212.446V50.134H214.826ZM222.525 50.134C223.772 50.134 224.865 50.3777 225.806 50.865C226.758 51.3523 227.489 52.0493 227.999 52.956C228.52 53.8513 228.781 54.894 228.781 56.084C228.781 57.274 228.52 58.3167 227.999 59.212C227.489 60.096 226.758 60.7817 225.806 61.269C224.865 61.7563 223.772 62 222.525 62H218.377V50.134H222.525ZM222.44 59.977C223.687 59.977 224.65 59.637 225.33 58.957C226.01 58.277 226.35 57.3193 226.35 56.084C226.35 54.8487 226.01 53.8853 225.33 53.194C224.65 52.4913 223.687 52.14 222.44 52.14H220.757V59.977H222.44ZM234.143 52.055V55.03H238.138V56.917H234.143V60.062H238.648V62H231.763V50.117H238.648V52.055H234.143ZM248.13 62L245.512 57.376H244.39V62H242.01V50.134H246.464C247.382 50.134 248.164 50.2983 248.81 50.627C249.456 50.9443 249.938 51.3807 250.255 51.936C250.584 52.48 250.748 53.092 250.748 53.772C250.748 54.554 250.522 55.2623 250.068 55.897C249.615 56.5203 248.941 56.951 248.045 57.189L250.884 62H248.13ZM244.39 55.591H246.379C247.025 55.591 247.507 55.438 247.824 55.132C248.142 54.8147 248.3 54.3783 248.3 53.823C248.3 53.279 248.142 52.8597 247.824 52.565C247.507 52.259 247.025 52.106 246.379 52.106H244.39V55.591Z" fill="#01428B"/>
</svg>
