<svg width="28" height="28" viewBox="0 0 28 28" fill="none" xmlns="http://www.w3.org/2000/svg">
<path d="M25.6673 5.44839V19.5301C25.6673 20.6501 24.7573 21.7 23.6373 21.84L23.2523 21.8868C20.709 22.2251 16.7889 23.52 14.5489 24.7567C14.2456 24.9317 13.744 24.9317 13.429 24.7567L13.3823 24.7334C11.1423 23.5084 7.23402 22.2251 4.70235 21.8868L4.36397 21.84C3.24397 21.7 2.33398 20.6501 2.33398 19.5301V5.43671C2.33398 4.04838 3.46562 2.99839 4.85395 3.11506C7.30395 3.31339 11.0139 4.55009 13.0906 5.84509L13.3823 6.02005C13.7206 6.23005 14.2807 6.23005 14.619 6.02005L14.8173 5.89173C15.5523 5.43673 16.4857 4.98172 17.5007 4.57339V9.33341L19.834 7.78172L22.1673 9.33341V3.24345C22.4823 3.18511 22.7857 3.15007 23.0657 3.12674H23.1357C24.524 3.01007 25.6673 4.04839 25.6673 5.44839Z" stroke="#272D4E" stroke-opacity="0.7" stroke-width="1.5" stroke-linecap="round" stroke-linejoin="round"/>
<path d="M14 6.40503V23.905" stroke="#272D4E" stroke-opacity="0.7" stroke-width="1.5" stroke-linecap="round" stroke-linejoin="round"/>
<path d="M22.1667 3.24341V9.33337L19.8333 7.78169L17.5 9.33337V4.57335C19.0283 3.96669 20.7317 3.47674 22.1667 3.24341Z" stroke="#272D4E" stroke-opacity="0.7" stroke-width="1.5" stroke-linecap="round" stroke-linejoin="round"/>
</svg>
