<svg width="21" height="20" viewBox="0 0 21 20" fill="none" xmlns="http://www.w3.org/2000/svg">
<path d="M18.8337 3.89174V13.9501C18.8337 14.7501 18.1837 15.5001 17.3837 15.6001L17.1087 15.6334C15.292 15.8751 12.492 16.8001 10.892 17.6834C10.6753 17.8084 10.317 17.8084 10.092 17.6834L10.0586 17.6668C8.45863 16.7918 5.66702 15.8751 3.85868 15.6334L3.61698 15.6001C2.81698 15.5001 2.16699 14.7501 2.16699 13.9501V3.8834C2.16699 2.89173 2.9753 2.14174 3.96697 2.22508C5.71697 2.36674 8.36697 3.2501 9.8503 4.1751L10.0586 4.30007C10.3003 4.45007 10.7004 4.45007 10.942 4.30007L11.0837 4.20841C11.6087 3.88341 12.2753 3.55841 13.0003 3.26674V6.66676L14.667 5.55841L16.3337 6.66676V2.31678C16.5587 2.27511 16.7753 2.25008 16.9753 2.23342H17.0253C18.017 2.15008 18.8337 2.89174 18.8337 3.89174Z" stroke="#272D4E" stroke-width="1.5" stroke-linecap="round" stroke-linejoin="round"/>
<path d="M10.5 4.57495V17.075" stroke="#272D4E" stroke-width="1.5" stroke-linecap="round" stroke-linejoin="round"/>
<path d="M16.3333 2.31665V6.66663L14.6667 5.55828L13 6.66663V3.26661C14.0917 2.83328 15.3083 2.48332 16.3333 2.31665Z" stroke="#272D4E" stroke-width="1.5" stroke-linecap="round" stroke-linejoin="round"/>
</svg>
