<svg xmlns="http://www.w3.org/2000/svg" xmlns:xlink="http://www.w3.org/1999/xlink" viewBox="0,0,256,256" width="48px" height="48px"><g fill="none" fill-rule="nonzero" stroke="none" stroke-width="1" stroke-linecap="butt" stroke-linejoin="miter" stroke-miterlimit="10" stroke-dasharray="" stroke-dashoffset="0" font-family="none" font-weight="none" font-size="none" text-anchor="none" style="mix-blend-mode: normal"><g transform="scale(5.33333,5.33333)"><path d="M41,36h-34v6c0,1.657 1.343,3 3,3h28c1.657,0 3,-1.343 3,-3z" fill-opacity="0.63137" fill="#000000"></path><path d="M38,42h-28c-1.105,0 -2,-0.895 -2,-2v-36h21l11,11v25c0,1.105 -0.895,2 -2,2z" fill="#ffffff"></path><path d="M38,43h-28c-1.654,0 -3,-1.346 -3,-3v-36c0,-0.552 0.447,-1 1,-1h21c0.266,0 0.52,0.105 0.707,0.293l11,11c0.188,0.187 0.293,0.442 0.293,0.707v25c0,1.654 -1.346,3 -3,3zM9,5v35c0,0.551 0.448,1 1,1h28c0.552,0 1,-0.449 1,-1v-24.586l-10.414,-10.414z" fill-opacity="0.63137" fill="#000000"></path><path d="M40,16h-11c-0.553,0 -1,-0.448 -1,-1v-11c0,-0.552 0.447,-1 1,-1c0.553,0 1,0.448 1,1v10h10c0.553,0 1,0.448 1,1c0,0.552 -0.447,1 -1,1z" fill-opacity="0.63137" fill="#000000"></path><path d="M33,24h-17c-0.553,0 -1,0.448 -1,1c0,0.552 0.447,1 1,1h17c0.553,0 1,-0.448 1,-1c0,-0.552 -0.447,-1 -1,-1z" fill-opacity="0.63137" fill="#000000"></path><path d="M27,29h-11c-0.553,0 -1,0.448 -1,1c0,0.552 0.447,1 1,1h11c0.553,0 1,-0.448 1,-1c0,-0.552 -0.447,-1 -1,-1z" fill-opacity="0.63137" fill="#000000"></path></g></g></svg>