<svg width="40" height="40" viewBox="0 0 40 40" fill="none" xmlns="http://www.w3.org/2000/svg">
<path d="M13.631 17.9674C12.8302 17.9701 12.0435 18.1789 11.3468 18.5736C12.3277 16.0345 13.9547 13.7955 16.0667 12.0783C16.1876 11.9788 16.2876 11.8564 16.3612 11.7182C16.4347 11.5801 16.4803 11.4287 16.4954 11.2729C16.5105 11.1171 16.4947 10.9599 16.449 10.8101C16.4034 10.6604 16.3286 10.5212 16.2291 10.4003C16.1296 10.2795 16.0072 10.1794 15.8691 10.1059C15.7309 10.0323 15.5796 9.98669 15.4237 9.97161C15.2679 9.95653 15.1107 9.97229 14.961 10.018C14.8112 10.0637 14.672 10.1384 14.5511 10.2379C10.2209 13.7562 8.29395 18.6278 8.29395 21.6481C8.30141 22.716 8.61965 23.7587 9.20983 24.6488C9.80001 25.5388 10.6366 26.2378 11.6174 26.6603C12.2522 26.9678 12.9473 27.1305 13.6526 27.1367C14.2734 27.1669 14.8939 27.0706 15.4764 26.8538C16.0589 26.6371 16.5913 26.3042 17.0413 25.8755C17.4914 25.4469 17.8497 24.9312 18.0945 24.3599C18.3393 23.7886 18.4655 23.1736 18.4655 22.552C18.4655 21.9305 18.3393 21.3154 18.0945 20.7441C17.8497 20.1728 17.4914 19.6572 17.0413 19.2285C16.5913 18.7998 16.0589 18.467 15.4764 18.2502C14.8939 18.0334 14.2734 17.9372 13.6526 17.9674H13.631Z" fill="#FCD89C"/>
<path d="M25.6915 17.9676C24.8906 17.9693 24.1037 18.1781 23.4073 18.5738C24.3879 16.0373 26.0106 13.7991 28.1164 12.0785C28.2482 11.9835 28.3592 11.8625 28.4425 11.723C28.5258 11.5835 28.5797 11.4284 28.6008 11.2673C28.622 11.1062 28.6099 10.9425 28.5654 10.7862C28.5209 10.63 28.4449 10.4845 28.342 10.3587C28.2392 10.2329 28.1117 10.1295 27.9673 10.0548C27.823 9.98015 27.665 9.9358 27.5029 9.92451C27.3408 9.91322 27.1781 9.93521 27.0249 9.98914C26.8716 10.0431 26.731 10.1278 26.6117 10.2381C22.2814 13.7564 20.3545 18.6279 20.3545 21.6483C20.3596 22.7041 20.6686 23.7362 21.2445 24.6211C21.8204 25.5061 22.6389 26.2066 23.6022 26.6389C24.253 26.9554 24.9678 27.1183 25.6915 27.1152C26.3123 27.1454 26.9328 27.0492 27.5153 26.8324C28.0978 26.6156 28.6302 26.2828 29.0802 25.8541C29.5303 25.4254 29.8886 24.9098 30.1334 24.3385C30.3782 23.7672 30.5044 23.1521 30.5044 22.5306C30.5044 21.909 30.3782 21.294 30.1334 20.7227C29.8886 20.1514 29.5303 19.6357 29.0802 19.2071C28.6302 18.7784 28.0978 18.4455 27.5153 18.2288C26.9328 18.012 26.3123 17.9158 25.6915 17.9459V17.9676Z" fill="#FCD89C"/>
</svg>
