<svg width="24" height="24" viewBox="0 0 24 24" fill="none" xmlns="http://www.w3.org/2000/svg">
<path d="M10.0495 2.53004L4.02953 6.46004C2.09953 7.72004 2.09953 10.54 4.02953 11.8L10.0495 15.73C11.1295 16.44 12.9095 16.44 13.9895 15.73L19.9795 11.8C21.8995 10.54 21.8995 7.73004 19.9795 6.47004L13.9895 2.54004C12.9095 1.82004 11.1295 1.82004 10.0495 2.53004Z" stroke="rgba(39,45,78,0.7)" stroke-width="1.5" stroke-linecap="round" stroke-linejoin="round"/>
<path d="M5.62914 13.0801L5.61914 17.7701C5.61914 19.0401 6.59914 20.4001 7.79914 20.8001L10.9891 21.8601C11.5391 22.0401 12.4491 22.0401 13.0091 21.8601L16.1991 20.8001C17.3991 20.4001 18.3791 19.0401 18.3791 17.7701V13.1301" stroke="rgba(39,45,78,0.7)" stroke-width="1.5" stroke-linecap="round" stroke-linejoin="round"/>
<path d="M21.4004 15V9" stroke="rgba(39,45,78,0.7)" stroke-width="1.5" stroke-linecap="round" stroke-linejoin="round"/>
</svg>
