<svg width="28" height="28" viewBox="0 0 28 28" fill="none" xmlns="http://www.w3.org/2000/svg">
<path d="M21.1626 25.2234C20.1359 25.5267 18.9226 25.6667 17.4993 25.6667H10.4993C9.07594 25.6667 7.8626 25.5267 6.83594 25.2234C7.0926 22.19 10.2076 19.7983 13.9993 19.7983C17.7909 19.7983 20.9059 22.19 21.1626 25.2234Z" stroke="#272D4E" stroke-opacity="0.7" stroke-width="1.5" stroke-linecap="round" stroke-linejoin="round"/>
<path d="M17.5007 2.33325H10.5007C4.66732 2.33325 2.33398 4.66659 2.33398 10.4999V17.4999C2.33398 21.9099 3.66399 24.3249 6.83732 25.2232C7.09398 22.1899 10.209 19.7982 14.0007 19.7982C17.7923 19.7982 20.9073 22.1899 21.164 25.2232C24.3373 24.3249 25.6673 21.9099 25.6673 17.4999V10.4999C25.6673 4.66659 23.334 2.33325 17.5007 2.33325ZM14.0007 16.5316C11.6907 16.5316 9.82398 14.6533 9.82398 12.3433C9.82398 10.0333 11.6907 8.16659 14.0007 8.16659C16.3107 8.16659 18.1773 10.0333 18.1773 12.3433C18.1773 14.6533 16.3107 16.5316 14.0007 16.5316Z" stroke="#272D4E" stroke-opacity="0.7" stroke-width="1.5" stroke-linecap="round" stroke-linejoin="round"/>
<path d="M18.1776 12.3434C18.1776 14.6534 16.3109 16.5317 14.0009 16.5317C11.6909 16.5317 9.82422 14.6534 9.82422 12.3434C9.82422 10.0334 11.6909 8.16675 14.0009 8.16675C16.3109 8.16675 18.1776 10.0334 18.1776 12.3434Z" stroke="#272D4E" stroke-opacity="0.7" stroke-width="1.5" stroke-linecap="round" stroke-linejoin="round"/>
</svg>
