<svg width="21" height="20" viewBox="0 0 21 20" fill="none" xmlns="http://www.w3.org/2000/svg">
<path d="M15.6171 18.0166C14.8838 18.2333 14.0171 18.3333 13.0005 18.3333H8.00045C6.98379 18.3333 6.11712 18.2333 5.38379 18.0166C5.56712 15.85 7.79212 14.1416 10.5005 14.1416C13.2088 14.1416 15.4338 15.85 15.6171 18.0166Z" stroke="#272D4E" stroke-width="1.5" stroke-linecap="round" stroke-linejoin="round"/>
<path d="M13.0003 1.66675H8.00033C3.83366 1.66675 2.16699 3.33341 2.16699 7.50008V12.5001C2.16699 15.6501 3.11699 17.3751 5.38366 18.0167C5.56699 15.8501 7.79199 14.1417 10.5003 14.1417C13.2087 14.1417 15.4337 15.8501 15.617 18.0167C17.8837 17.3751 18.8337 15.6501 18.8337 12.5001V7.50008C18.8337 3.33341 17.167 1.66675 13.0003 1.66675ZM10.5003 11.8084C8.85033 11.8084 7.51699 10.4668 7.51699 8.81676C7.51699 7.16676 8.85033 5.83341 10.5003 5.83341C12.1503 5.83341 13.4837 7.16676 13.4837 8.81676C13.4837 10.4668 12.1503 11.8084 10.5003 11.8084Z" stroke="#272D4E" stroke-width="1.5" stroke-linecap="round" stroke-linejoin="round"/>
<path d="M13.4833 8.8166C13.4833 10.4666 12.1499 11.8082 10.4999 11.8082C8.84994 11.8082 7.5166 10.4666 7.5166 8.8166C7.5166 7.1666 8.84994 5.83325 10.4999 5.83325C12.1499 5.83325 13.4833 7.1666 13.4833 8.8166Z" stroke="#272D4E" stroke-width="1.5" stroke-linecap="round" stroke-linejoin="round"/>
</svg>
