<svg width="28" height="28" viewBox="0 0 28 28" fill="none" xmlns="http://www.w3.org/2000/svg">
<path d="M24.5928 10.01V17.9899C24.5928 19.2966 23.8929 20.51 22.7612 21.175L15.8312 25.1766C14.6995 25.83 13.2995 25.83 12.1562 25.1766L5.22621 21.175C4.09454 20.5216 3.39453 19.3083 3.39453 17.9899V10.01C3.39453 8.70329 4.09454 7.48991 5.22621 6.82491L12.1562 2.82325C13.2879 2.16992 14.6879 2.16992 15.8312 2.82325L22.7612 6.82491C23.8929 7.48991 24.5928 8.69163 24.5928 10.01Z" stroke="#272D4E" stroke-width="1.5" stroke-linecap="round" stroke-linejoin="round"/>
<path d="M11.375 14V12.6C11.375 10.8033 12.6467 10.0683 14.1983 10.9667L15.4117 11.6666L16.625 12.3666C18.1767 13.2649 18.1767 14.735 16.625 15.6333L15.4117 16.3333L14.1983 17.0333C12.6467 17.9316 11.375 17.1966 11.375 15.4V14Z" stroke="#272D4E" stroke-width="1.5" stroke-miterlimit="10" stroke-linecap="round" stroke-linejoin="round"/>
</svg>
